<?xml version="1.0" standalone="no"?><!DOCTYPE svg PUBLIC "-//W3C//DTD SVG 1.1//EN" "http://www.w3.org/Graphics/SVG/1.1/DTD/svg11.dtd"><svg t="1502716735981" class="icon" style="" viewBox="0 0 1024 1024" version="1.1" xmlns="http://www.w3.org/2000/svg" p-id="2505" xmlns:xlink="http://www.w3.org/1999/xlink" width="16" height="16"><defs><style type="text/css"></style></defs><path d="M789.35 708.29c-41.843-41.844-91.481-73.065-145.633-92.316 28.56-14.17 54.934-33.042 78.138-56.245 56.055-56.054 86.927-130.583 86.927-209.857s-30.87-153.803-86.927-209.858c-56.054-56.054-130.583-86.926-209.857-86.926s-153.803 30.871-209.858 86.926c-56.055 56.054-86.927 130.583-86.927 209.858s30.87 153.803 86.927 209.857c23.203 23.203 49.58 42.076 78.14 56.245-54.154 19.252-103.79 50.471-145.635 92.316-70.601 70.599-110.944 163.377-114.585 262.622h51.98c3.613-85.364 38.549-165.102 99.338-225.888 59.489-59.489 137.129-94.215 220.428-99.058 6.692 0.447 13.422 0.689 20.191 0.689 6.769 0 13.5-0.242 20.191-0.689 83.298 4.843 160.939 39.569 220.428 99.058 60.787 60.786 95.725 140.524 99.338 225.888h51.98c-3.638-99.245-43.982-192.022-114.583-262.622zM267.165 349.871c0-135.003 109.833-244.836 244.836-244.836 135.003 0 244.836 109.834 244.836 244.836 0 128.325-99.243 233.899-225.005 244.027-6.582-0.325-13.195-0.491-19.83-0.491-6.638 0-13.249 0.166-19.831 0.491-125.762-10.128-225.004-115.701-225.004-244.027z" p-id="2506"></path></svg>